<svg width="77" height="16" viewBox="0 0 77 16" fill="none" xmlns="http://www.w3.org/2000/svg">
<path d="M1.352 3.278V6.54H4.908V7.59H1.352V10.95H5.328V12H0.0780001V2.228H5.328V3.278H1.352ZM10.2937 2.242C11.3577 2.242 12.2771 2.44267 13.0517 2.844C13.8357 3.236 14.4331 3.80067 14.8437 4.538C15.2637 5.27533 15.4737 6.14333 15.4737 7.142C15.4737 8.14067 15.2637 9.00867 14.8437 9.746C14.4331 10.474 13.8357 11.034 13.0517 11.426C12.2771 11.8087 11.3577 12 10.2937 12H7.25573V2.242H10.2937ZM10.2937 10.95C11.5537 10.95 12.5151 10.6187 13.1777 9.956C13.8404 9.284 14.1717 8.346 14.1717 7.142C14.1717 5.92867 13.8357 4.98133 13.1637 4.3C12.5011 3.61867 11.5444 3.278 10.2937 3.278H8.52973V10.95H10.2937ZM18.4002 2.242V8.416C18.4002 9.284 18.6102 9.928 19.0302 10.348C19.4595 10.768 20.0522 10.978 20.8082 10.978C21.5548 10.978 22.1382 10.768 22.5582 10.348C22.9875 9.928 23.2022 9.284 23.2022 8.416V2.242H24.4762V8.402C24.4762 9.214 24.3128 9.9 23.9862 10.46C23.6595 11.0107 23.2162 11.4213 22.6562 11.692C22.1055 11.9627 21.4848 12.098 20.7942 12.098C20.1035 12.098 19.4782 11.9627 18.9182 11.692C18.3675 11.4213 17.9288 11.0107 17.6022 10.46C17.2848 9.9 17.1262 9.214 17.1262 8.402V2.242H18.4002ZM26.1254 7.114C26.1254 6.162 26.3401 5.308 26.7694 4.552C27.1988 3.78667 27.7821 3.18933 28.5194 2.76C29.2661 2.33067 30.0921 2.116 30.9974 2.116C32.0614 2.116 32.9901 2.37267 33.7834 2.886C34.5768 3.39933 35.1554 4.12733 35.5194 5.07H33.9934C33.7228 4.482 33.3308 4.02933 32.8174 3.712C32.3134 3.39467 31.7068 3.236 30.9974 3.236C30.3161 3.236 29.7048 3.39467 29.1634 3.712C28.6221 4.02933 28.1974 4.482 27.8894 5.07C27.5814 5.64867 27.4274 6.33 27.4274 7.114C27.4274 7.88867 27.5814 8.57 27.8894 9.158C28.1974 9.73667 28.6221 10.1847 29.1634 10.502C29.7048 10.8193 30.3161 10.978 30.9974 10.978C31.7068 10.978 32.3134 10.824 32.8174 10.516C33.3308 10.1987 33.7228 9.746 33.9934 9.158H35.5194C35.1554 10.0913 34.5768 10.8147 33.7834 11.328C32.9901 11.832 32.0614 12.084 30.9974 12.084C30.0921 12.084 29.2661 11.874 28.5194 11.454C27.7821 11.0247 27.1988 10.432 26.7694 9.676C26.3401 8.92 26.1254 8.066 26.1254 7.114ZM43.1839 9.83H38.9279L38.1439 12H36.7999L40.3279 2.298H41.7979L45.3119 12H43.9679L43.1839 9.83ZM42.8199 8.794L41.0559 3.866L39.2919 8.794H42.8199ZM51.2455 10.978C51.9548 10.978 52.5615 10.824 53.0655 10.516C53.5788 10.1987 53.9708 9.746 54.2415 9.158H55.7675C55.4315 10.0167 54.9088 10.698 54.1995 11.202C53.4995 11.706 52.6782 11.9953 51.7355 12.07V12.812C52.2862 12.8027 52.7248 12.9193 53.0515 13.162C53.3782 13.4047 53.5415 13.75 53.5415 14.198C53.5415 14.6367 53.3828 14.9867 53.0655 15.248C52.7482 15.5093 52.3375 15.64 51.8335 15.64H50.2235V14.814H51.5815C51.8895 14.814 52.1135 14.7673 52.2535 14.674C52.4028 14.5807 52.4775 14.422 52.4775 14.198C52.4775 13.9833 52.4028 13.8293 52.2535 13.736C52.1135 13.6427 51.8895 13.596 51.5815 13.596H50.8815V12.07C50.0322 12.014 49.2622 11.7713 48.5715 11.342C47.8902 10.9033 47.3535 10.32 46.9615 9.592C46.5695 8.85467 46.3735 8.02867 46.3735 7.114C46.3735 6.162 46.5882 5.308 47.0175 4.552C47.4468 3.78667 48.0302 3.18933 48.7675 2.76C49.5142 2.33067 50.3402 2.116 51.2455 2.116C52.3095 2.116 53.2382 2.37267 54.0315 2.886C54.8248 3.39933 55.4035 4.12733 55.7675 5.07H54.2415C53.9708 4.482 53.5788 4.02933 53.0655 3.712C52.5615 3.39467 51.9548 3.236 51.2455 3.236C50.5642 3.236 49.9528 3.39467 49.4115 3.712C48.8702 4.02933 48.4455 4.482 48.1375 5.07C47.8295 5.64867 47.6755 6.33 47.6755 7.114C47.6755 7.88867 47.8295 8.57 48.1375 9.158C48.4455 9.73667 48.8702 10.1847 49.4115 10.502C49.9528 10.8193 50.5642 10.978 51.2455 10.978ZM63.4319 9.83H59.1759L58.3919 12H57.0479L60.5759 2.298H62.0459L65.5599 12H64.2159L63.4319 9.83ZM63.0679 8.794L61.3039 3.866L59.5399 8.794H63.0679ZM59.2459 1.472C59.3113 0.996 59.4653 0.631999 59.7079 0.379999C59.9599 0.127999 60.2726 0.00199926 60.6459 0.00199926C60.8233 0.00199926 60.9726 0.0346661 61.0939 0.0999997C61.2246 0.156 61.3786 0.24 61.5559 0.352C61.6866 0.445333 61.8033 0.52 61.9059 0.575999C62.0086 0.622666 62.1206 0.645999 62.2419 0.645999C62.4006 0.645999 62.5359 0.594666 62.6479 0.492C62.7599 0.389333 62.8299 0.239999 62.8579 0.0439996H63.5859C63.5299 0.510666 63.3759 0.87 63.1239 1.122C62.8719 1.374 62.5593 1.5 62.1859 1.5C62.0086 1.5 61.8499 1.472 61.7099 1.416C61.5793 1.35067 61.4299 1.25733 61.2619 1.136C61.1126 1.04267 60.9913 0.972667 60.8979 0.926C60.8139 0.879333 60.7113 0.855999 60.5899 0.855999C60.4313 0.855999 60.2959 0.907333 60.1839 1.01C60.0813 1.11267 60.0159 1.26667 59.9879 1.472H59.2459ZM71.5215 12.098C70.6162 12.098 69.7902 11.888 69.0435 11.468C68.2969 11.0387 67.7042 10.446 67.2655 9.69C66.8362 8.92467 66.6215 8.066 66.6215 7.114C66.6215 6.162 66.8362 5.308 67.2655 4.552C67.7042 3.78667 68.2969 3.194 69.0435 2.774C69.7902 2.34467 70.6162 2.13 71.5215 2.13C72.4362 2.13 73.2669 2.34467 74.0135 2.774C74.7602 3.194 75.3482 3.782 75.7775 4.538C76.2069 5.294 76.4215 6.15267 76.4215 7.114C76.4215 8.07533 76.2069 8.934 75.7775 9.69C75.3482 10.446 74.7602 11.0387 74.0135 11.468C73.2669 11.888 72.4362 12.098 71.5215 12.098ZM71.5215 10.992C72.2029 10.992 72.8142 10.8333 73.3555 10.516C73.9062 10.1987 74.3355 9.746 74.6435 9.158C74.9609 8.57 75.1195 7.88867 75.1195 7.114C75.1195 6.33 74.9609 5.64867 74.6435 5.07C74.3355 4.482 73.9109 4.02933 73.3695 3.712C72.8282 3.39467 72.2122 3.236 71.5215 3.236C70.8309 3.236 70.2149 3.39467 69.6735 3.712C69.1322 4.02933 68.7029 4.482 68.3855 5.07C68.0775 5.64867 67.9235 6.33 67.9235 7.114C67.9235 7.88867 68.0775 8.57 68.3855 9.158C68.7029 9.746 69.1322 10.1987 69.6735 10.516C70.2242 10.8333 70.8402 10.992 71.5215 10.992Z" fill="#858585"/>
</svg>
